<svg xmlns="http://www.w3.org/2000/svg" viewBox="0 0 800 800"><defs><radialGradient id="core"><stop stop-color="#fff7b1"/><stop offset=".2" stop-color="#ffb52e"/><stop offset=".55" stop-color="#ff5b20"/><stop offset="1" stop-color="#4b0d12"/></radialGradient><linearGradient id="metal"><stop stop-color="#77818b"/><stop offset=".45" stop-color="#252c34"/><stop offset="1" stop-color="#090c11"/></linearGradient><filter id="g"><feGaussianBlur stdDeviation="12"/></filter></defs><g><animateTransform attributeName="transform" type="translate" values="0 0;0 -12;0 0;0 9;0 0" dur="3.4s" repeatCount="indefinite"/><g fill="none" stroke="#343c45" stroke-width="18" stroke-linecap="round"><path d="M350 485 C270 560 300 660 210 735"><animate attributeName="d" dur="2.7s" repeatCount="indefinite" values="M350 485 C270 560 300 660 210 735;M350 485 C230 555 340 645 190 720;M350 485 C270 560 300 660 210 735"/></path><path d="M400 500 C390 610 470 650 420 760"><animate attributeName="d" dur="3.1s" repeatCount="indefinite" values="M400 500 C390 610 470 650 420 760;M400 500 C450 600 350 680 440 760;M400 500 C390 610 470 650 420 760"/></path><path d="M450 485 C540 560 500 650 610 730"><animate attributeName="d" dur="2.4s" repeatCount="indefinite" values="M450 485 C540 560 500 650 610 730;M450 485 C580 540 480 650 635 710;M450 485 C540 560 500 650 610 730"/></path></g><circle cx="400" cy="355" r="210" fill="#ff5b20" opacity=".16" filter="url(#g)"><animate attributeName="r" values="195;225;195" dur="1.8s" repeatCount="indefinite"/></circle><path d="M220 330Q250 150 400 120Q550 150 580 330Q560 500 400 530Q240 500 220 330Z" fill="url(#metal)" stroke="#9ba6ae" stroke-width="6"/><path d="M255 300Q400 190 545 300L515 435Q400 500 285 435Z" fill="#07090d"/><ellipse cx="400" cy="350" rx="112" ry="92" fill="url(#core)"/><ellipse cx="400" cy="350" rx="55" ry="44" fill="#fff5b0"><animate attributeName="rx" values="48;64;48" dur="1.25s" repeatCount="indefinite"/></ellipse><circle cx="400" cy="350" r="21" fill="#fff"/><g fill="#c8d0d6"><path d="M205 280l-85 35 95 30z"/><path d="M595 280l85 35-95 30z"/></g></g></svg>
