<svg xmlns="http://www.w3.org/2000/svg" viewBox="0 0 1000 500"><defs><linearGradient id="m"><stop stop-color="#9aa3a9"/><stop offset=".5" stop-color="#343b42"/><stop offset="1" stop-color="#171b20"/></linearGradient></defs><path d="M130 380L800 350 900 405 170 438Z" fill="#8c7359" stroke="#312a24" stroke-width="12"/><path d="M165 430L70 455M850 395l100 25" stroke="url(#m)" stroke-width="26" stroke-linecap="round"/><path d="M210 442l-60 35M300 430l-55 45M760 395l-45 45M845 395l-38 38" stroke="#c1c7ca" stroke-width="13"/><path d="M250 360Q480 260 735 340" fill="none" stroke="#5f5043" stroke-width="70"/><g fill="url(#m)" stroke="#8e9ba2" stroke-width="5"><rect x="325" y="265" width="120" height="78" rx="12"/><rect x="465" y="250" width="90" height="90" rx="8"/><rect x="570" y="280" width="120" height="58" rx="8"/></g><path d="M125 390L30 275M875 380l90-115" stroke="#6e7478" stroke-width="16"/></svg>
